<svg width="35" height="35" viewBox="0 0 35 35" xmlns="http://www.w3.org/2000/svg" xmlns:xlink="http://www.w3.org/1999/xlink"><path width="24" height="24" stroke="none" fill="#000000" opacity="0" d="M0 0H35V35H0V0z" stroke-width="1.4583333333333333"/><g transform="matrix(.43 0 0 .43 12 12)"><path style="stroke: none; stroke-width: 1; stroke-dasharray: none; stroke-linecap: butt; stroke-dashoffset: 0; stroke-linejoin: miter; stroke-miterlimit: 4; fill: rgb(0,0,0); fill-rule: nonzero; opacity: 1;" transform="translate(-25 -25)" d="M36.458 2.917C17.952 2.917 2.917 17.952 2.917 36.458s15.035 33.542 33.542 33.542 33.542 -15.035 33.542 -33.542S54.965 2.917 36.458 2.917m0 2.917c16.931 0 30.625 13.694 30.625 30.625s-13.694 30.625 -30.625 30.625S5.833 53.39 5.833 36.458 19.527 5.833 36.458 5.833m-5.833 10.208 -14.583 13.125h9.889c0.029 4.152 3.189 8.356 8.734 8.356 0.525 0 1.108 -0.058 1.692 -0.117 -0.262 0.656 -0.54 1.196 -0.54 2.085 0 1.677 0.846 2.683 1.59 3.646 -2.377 0.16 -6.796 0.437 -10.048 2.465 -3.106 1.881 -4.054 4.608 -4.054 6.533 0 3.967 3.675 7.656 11.302 7.656 9.042 0 13.84 -5.09 13.84 -10.121 0 -3.69 -2.1 -5.512 -4.419 -7.496l-1.881 -1.502c-0.583 -0.467 -1.385 -1.123 -1.385 -2.29 0 -1.181 0.802 -1.94 1.488 -2.64 2.202 -1.75 4.419 -3.719 4.419 -7.685a8.313 8.313 0 0 0 -0.863 -3.777L51.042 19.79v5.406A2.902 2.902 0 0 0 49.583 27.708v8.75a2.917 2.917 0 0 0 5.833 0v-8.75c0 -1.076 -0.591 -2.007 -1.458 -2.513V17.5c0 -0.063 -0.029 -0.117 -0.036 -0.176L55.417 16.042zm4.769 4.725c4.375 0 6.635 5.994 6.635 9.858 0 0.948 -0.117 2.654 -1.313 3.894 -0.846 0.86 -2.26 1.502 -3.587 1.502 -4.506 0 -6.577 -5.95 -6.577 -9.537 0 -1.385 0.277 -2.829 1.167 -3.938 0.846 -1.094 2.319 -1.779 3.675 -1.779m2.581 23.873c0.54 0 0.802 0 1.225 0.058 3.996 2.887 5.717 4.331 5.717 7.058 0 3.31 -2.669 5.79 -7.729 5.79 -5.629 0 -9.246 -2.727 -9.246 -6.533s3.354 -5.075 4.521 -5.512c2.202 -0.758 5.046 -0.86 5.512 -0.86" stroke-linecap="round"/></g></svg>