<svg viewBox="-1 -1 32 32" fill="none" xmlns="http://www.w3.org/2000/svg" id="Star-Rings--Streamline-Solar-Broken" height="32" width="32">
  <desc>
    Star Rings Streamline Icon: https://streamlinehq.com
  </desc>
  <path d="m27.494125 16.90025 -0.9339999999999999 0.081625 0.9339999999999999 -0.081625ZM14.61975 11.39985l0.08574999999999999 -0.9335625000000001 -0.08574999999999999 0.9335625000000001ZM2.5058999999999996 14.604999999999999l0.9339375 -0.081625 -0.9339375 0.081625Zm24.6726 3.37125 -0.7606250000000001 -0.548 0.7606250000000001 0.548ZM2.6185750000000003 15.080625000000001l0.875175 -0.33612499999999995 -0.875175 0.33612499999999995Zm0.54165 0.8476250000000001 0.699525 -0.62425 -0.699525 0.62425Zm1.9281875000000002 1.44 -0.4523125 0.8211250000000001 0.4523125 -0.8211250000000001Zm0.863175 -4.548125c0.4982875 -0.140625 0.7882125 -0.6586375 0.6475625 -1.156925 -0.1406625 -0.49829999999999997 -0.658625 -0.7882250000000001 -1.156925 -0.6475625l0.5093625 1.8044875Zm3.3861625 7.173375c0.5000249999999999 0.134375 1.0143125 -0.16199999999999998 1.1487125 -0.6619999999999999 0.13440000000000002 -0.5 -0.16199999999999998 -1.014375 -0.662025 -1.1487500000000002l-0.48668749999999994 1.81075Zm-6.5163 -6.464375 0.7606625 0.548 -0.7606625 -0.548Zm24.559925 2.8954999999999997 -0.8751249999999999 0.33612499999999995 0.8751249999999999 -0.33612499999999995Zm-0.541625 -0.8475 -0.6995 0.624125 0.6995 -0.624125Zm-1.928125 -1.4401249999999999 0.45225000000000004 -0.8211250000000001 -0.45225000000000004 0.8211250000000001Zm-4.249375000000001 -2.6252375c-0.5 -0.1343875 -1.014375 0.1620125 -1.1487500000000002 0.662025 -0.134375 0.4999625 0.16199999999999998 1.0143375000000001 0.6619999999999999 1.1487125l0.48675 -1.8107375ZM10.413587500000002 20.26225c0.504425 0.11674999999999999 1.008 -0.1975 1.1247625 -0.701875 0.1167625 -0.5045000000000001 -0.1975 -1.008 -0.7019375 -1.124875l-0.422825 1.82675ZM22.995 18.9345c-0.508 0.09974999999999999 -0.839 0.5926250000000001 -0.739125 1.100625 0.09987499999999999 0.5081249999999999 0.5926250000000001 0.839 1.1007500000000001 0.739125l-0.361625 -1.83975ZM9.954675 10.347625c-0.5171625 0.025037499999999997 -0.9161125000000001 0.46457499999999996 -0.8910750000000001 0.9817375 0.025037499999999997 0.5171625 0.46457499999999996 0.9161125000000001 0.981725 0.8910750000000001L9.954675 10.347625Zm18.473325 6.471c-0.1035 -1.184875 -1.015625 -2.156875 -2.0885000000000002 -2.9017500000000003l-1.06925 1.540125c0.9582499999999999 0.665375 1.2621250000000002 1.20725 1.289875 1.524875l1.867875 -0.16325Zm-2.0885000000000002 -2.9017500000000003c-2.423375 -1.6825124999999999 -6.814125 -3.007875 -11.634 -3.4505875l-0.17149999999999999 1.8671375000000001c4.668 0.42882499999999996 8.690999999999999 1.7037 10.73625 3.123575l1.06925 -1.540125Zm-1.781625 6.572750000000001c1.440625 -0.40662499999999996 2.707 -1.029375 3.381375 -1.965375l-1.5213750000000001 -1.096c-0.29125 0.40425 -1.036375 0.880625 -2.369375 1.256875l0.5093749999999999 1.8045Zm3.381375 -1.965375c0.35362499999999997 -0.490875 0.54425 -1.070875 0.48875 -1.705625l-1.867875 0.16325c0.011875 0.13525 -0.01925 0.275625 -0.14225 0.44637499999999997l1.5213750000000001 1.096ZM1.57195 14.686625c0.0221375 0.25325 0.08212499999999999 0.49750000000000005 0.17145 0.7301249999999999l1.75035 -0.6722499999999999c-0.032375 -0.08425 -0.04835 -0.1575 -0.0539125 -0.22112500000000002l-1.8678875000000001 0.16325Zm0.17145 0.7301249999999999c0.15938750000000002 0.41500000000000004 0.41228750000000003 0.79375 0.7173 1.1356249999999999l1.39905 -1.248375c-0.19380000000000003 -0.21712499999999998 -0.306875 -0.4055 -0.366 -0.5595l-1.75035 0.6722499999999999Zm0.7173 1.1356249999999999c0.5405875 0.605875 1.2954875 1.1523750000000001 2.1754000000000002 1.637l0.9046375 -1.6422500000000002c-0.7730625000000001 -0.425875 -1.331375 -0.8512500000000001 -1.6809874999999999 -1.243125l-1.39905 1.248375Zm2.1754000000000002 1.637c0.5543625 0.305375 1.1716374999999999 0.5935 1.8392249999999999 0.86125l0.6979375 -1.7403750000000002c-0.6085125 -0.24400000000000002 -1.1552375 -0.50025 -1.632525 -0.763125l-0.9046375 1.6422500000000002Zm0.806125 -7.1737375000000005c-1.098325 0.310025 -2.0593375 0.7357374999999999 -2.7508125 1.303725 -0.7064125 0.5802625 -1.2055250000000002 1.3820125 -1.1194625 2.3672625l1.8678875000000001 -0.16325c-0.0157 -0.17975000000000002 0.0450125 -0.42924999999999996 0.4417125 -0.7551249999999999 0.41162499999999996 -0.338125 1.0970125 -0.6735 2.0700374999999998 -0.9481249999999999l-0.5093625 -1.8044875ZM26.3395 13.916875c-0.7718750000000001 -0.536 -1.73 -1.027125 -2.8147499999999996 -1.46215l-0.697875 1.740275c0.9948750000000001 0.39899999999999997 1.81875 0.828375 2.443375 1.262l1.06925 -1.540125Zm-21.7034125 4.2725c1.271475 0.700375 2.8851625 1.315875 4.7016625 1.804125l0.48668749999999994 -1.81075c-1.715575 -0.461125 -3.179425 -1.027375 -4.2837 -1.635625l-0.9046500000000001 1.6422500000000002Zm-3.0641374999999997 -3.50275c0.1035125 1.184875 1.0155875 2.156875 2.0885124999999998 2.901875l1.0693125 -1.54025c-0.9582375 -0.66525 -1.2621875 -1.20725 -1.2899375 -1.524875l-1.8678875000000001 0.16325Zm3.8702750000000004 -3.6709875c-1.440575 0.40662499999999996 -2.7071375 1.02945 -3.3814375 1.9654875l1.521325 1.096c0.2912625 -0.40437500000000004 1.0364375000000001 -0.88075 2.369475 -1.2570000000000001l-0.5093625 -1.8044875ZM2.0607875 12.981125c-0.353575 0.49075 -0.5442875 1.0706250000000002 -0.4888375 1.7055l1.8678875000000001 -0.16325c-0.0118125 -0.13525 0.019237499999999998 -0.2755 0.142275 -0.44625l-1.521325 -1.096Zm26.3672125 3.8375c-0.022125 -0.253375 -0.08212499999999999 -0.49750000000000005 -0.171375 -0.7301249999999999l-1.750375 0.6722499999999999c0.032375 0.084375 0.048375 0.1575 0.053875 0.22112500000000002l1.867875 -0.16325Zm-0.171375 -0.7301249999999999c-0.159375 -0.41500000000000004 -0.41237500000000005 -0.79375 -0.717375 -1.1356249999999999l-1.399 1.248375c0.19375 0.21725 0.306875 0.405625 0.366 0.5595l1.750375 -0.6722499999999999Zm-0.717375 -1.1356249999999999c-0.5405 -0.60575 -1.2955 -1.1523750000000001 -2.175375 -1.637l-0.904625 1.6423750000000001c0.7731250000000001 0.42575 1.331375 0.8511249999999999 1.681 1.2429999999999999l1.399 -1.248375Zm-2.175375 -1.637c-0.5543750000000001 -0.305375 -1.1715 -0.593375 -1.8391250000000001 -0.86115l-0.697875 1.740275c0.608375 0.24400000000000002 1.155125 0.50025 1.6323750000000001 0.76325l0.904625 -1.6423750000000001Zm-0.806 7.17375c1.098375 -0.31 2.05925 -0.73575 2.75075 -1.30375 0.7063750000000001 -0.58025 1.2055 -1.382 1.119375 -2.36725l-1.867875 0.16325c0.01575 0.17975000000000002 -0.045 0.42924999999999996 -0.441625 0.7551249999999999 -0.41162499999999996 0.338125 -1.097 0.6735 -2.07 0.9481249999999999l0.5093749999999999 1.8045ZM3.6604625000000004 17.5885c0.7719750000000001 0.535875 1.7301625 1.027 2.8148625 1.462125l0.6979375 -1.7403750000000002c-0.994975 -0.39899999999999997 -1.8189 -0.828375 -2.4435000000000002 -1.262l-1.0693 1.54025Zm21.7034125 -4.272625C24.0925 12.615499999999999 22.47875 12 20.66225 11.5117625l-0.48675 1.8107375c1.7156250000000002 0.461125 3.1795 1.027375 4.28375 1.63575l0.904625 -1.6423750000000001ZM3.6604625000000004 17.5885c1.5830125000000002 1.099 3.9843625 2.032875 6.753125 2.6737499999999996l0.422825 -1.82675c-2.6519375 -0.61375 -4.7968375000000005 -1.4778749999999998 -6.1066375 -2.38725l-1.0693125 1.54025Zm19.6961625 3.18575c1.431375 -0.281375 2.676125 -0.71075 3.572375 -1.308 0.8968750000000001 -0.59775 1.600625 -1.48525 1.499 -2.647625l-1.867875 0.16325c0.0175 0.200625 -0.06525 0.520375 -0.6708749999999999 0.924125 -0.606375 0.40412499999999996 -1.58025 0.77025 -2.89425 1.0285l0.361625 1.83975Zm-8.651125 -10.3079625c-1.6825 -0.15455 -3.2850374999999996 -0.1896125 -4.750825 -0.1186625l0.09065000000000001 1.8728125000000002c1.37205 -0.066425 2.8866750000000003 -0.0341625 4.488675 0.11298749999999999l0.17149999999999999 -1.8671375000000001Z" fill="#000000" stroke-width="2"></path>
  <path d="M19.093 6.0632624999999996c0.32399999999999995 -0.20447500000000002 0.6385000000000001 -0.381575 0.94125 -0.5294375 1.100875 -0.537675 2.045375 -0.6887624999999999 2.718125 -0.36348749999999996 0.34475 0.16670000000000001 0.5972500000000001 0.4484125 0.7618750000000001 0.82775 0.153875 0.35430000000000006 0.23112500000000002 0.79375 0.23550000000000001 1.3041749999999999m-4.65675 -1.2389999999999999C16.825000000000003 7.49455 14.095375 10.266987499999999 11.727387499999999 13.740375m7.365612499999999 -7.6771125c-0.48612500000000003 0.3067625 -0.9933749999999999 0.67515 -1.5137500000000002 1.098825M8.484975 26.0735c0.0042125 0.002 0.008425 0.004125 0.0126625 0.006125 0.1419 0.06862499999999999 0.2959 0.11612499999999999 0.4609125 0.143125 0.296275 0.048624999999999995 0.6280625 0.031625 0.9890875 -0.04625 0.6443 -0.13875 1.3816875 -0.47100000000000003 2.176525 -0.969125 0.186025 -0.1165 0.3752125 -0.24225 0.5670875 -0.376625 0.31975000000000003 -0.22387500000000002 0.6469999999999999 -0.47212499999999996 0.979625 -0.7428750000000001l1.4685000000000001 -1.19325m-6.654400000000001 3.1788749999999997c-1.0321500000000001 -0.510875 -1.226375 -2.064375 -0.7074625 -4.184375m0.7074625 4.184375c-1.65985 -0.821625 -1.1529375 -4.3395 1.002475 -8.5735M23.472624999999997 9.360825c0.188 -0.7681 0.282375 -1.4618375000000001 0.277125 -2.0585625m0 0c0.009375 1.070225 -0.301625 2.4525 -0.8985 4.0161875" stroke="#000000" stroke-linecap="round" stroke-width="2"></path>
  <path d="M14.705874999999999 17.851625c-0.01725 -1.138 -0.025750000000000002 -1.7069999999999999 0.333 -1.914125 0.35874999999999996 -0.20712499999999998 0.84725 0.08474999999999999 1.8242500000000001 0.668625l0.25275 0.15112499999999998c0.277625 0.16587500000000002 0.416375 0.24875000000000003 0.56925 0.268125 0.153 0.019375 0.30262500000000003 -0.027125 0.602125 -0.12012500000000001l0.272625 -0.08462499999999999c1.053625 -0.32725 1.5805 -0.490875 1.897125 -0.19837500000000002 0.31675000000000003 0.29250000000000004 0.21350000000000002 0.847375 0.007125 1.957125l-0.053375000000000006 0.28712499999999996c-0.058625 0.315375 -0.08800000000000001 0.47300000000000003 -0.05325 0.627125 0.034875 0.154 0.12975 0.287 0.31975000000000003 0.552875l0.172875 0.242125c0.6683749999999999 0.9357500000000001 1.0025 1.403625 0.8394999999999999 1.7915 -0.16299999999999998 0.388 -0.7153750000000001 0.439 -1.819875 0.541l-0.28575 0.026375000000000003c-0.313875 0.028999999999999998 -0.47075 0.0435 -0.60225 0.11937500000000001 -0.131375 0.075875 -0.222375 0.2045 -0.40437500000000004 0.461875l-0.16575 0.23425c-0.640625 0.9055000000000001 -0.9610000000000001 1.358375 -1.3783750000000001 1.3054999999999999 -0.41750000000000004 -0.052750000000000005 -0.6556249999999999 -0.576 -1.131875 -1.62275l-0.12312500000000001 -0.27075c-0.135375 -0.2975 -0.20299999999999999 -0.44625 -0.31899999999999995 -0.553375 -0.11612499999999999 -0.107125 -0.26725 -0.16062500000000002 -0.56975 -0.2675l-0.27525 -0.09724999999999999c-1.064375 -0.376125 -1.5964999999999998 -0.56425 -1.6913749999999999 -0.9847499999999999 -0.095 -0.4205 0.310125 -0.794875 1.12025 -1.543875l0.20962499999999998 -0.19375c0.23025 -0.21275 0.345375 -0.31925000000000003 0.405125 -0.46125 0.059625 -0.142125 0.05725 -0.303875 0.052375 -0.6272500000000001l-0.004375 -0.294375Z" stroke="#000000" stroke-width="2"></path>
</svg>
